<mxfile host="Electron" agent="Mozilla/5.0 (Macintosh; Intel Mac OS X 10_15_7) AppleWebKit/537.36 (KHTML, like Gecko) draw.io/24.7.17 Chrome/128.0.6613.36 Electron/32.0.1 Safari/537.36" version="24.7.17">
  <diagram id="C5RBs43oDa-KdzZeNtuy" name="Page-1">
    <mxGraphModel dx="1443" dy="1118" grid="1" gridSize="10" guides="1" tooltips="1" connect="1" arrows="1" fold="1" page="1" pageScale="1" pageWidth="827" pageHeight="1169" math="0" shadow="0">
      <root>
        <mxCell id="WIyWlLk6GJQsqaUBKTNV-0" />
        <mxCell id="WIyWlLk6GJQsqaUBKTNV-1" parent="WIyWlLk6GJQsqaUBKTNV-0" />
        <mxCell id="OLpAq79K6-Yp3FqnE2U5-7" value="Marca" style="swimlane;fontStyle=0;childLayout=stackLayout;horizontal=1;startSize=30;horizontalStack=0;resizeParent=1;resizeParentMax=0;resizeLast=0;collapsible=1;marginBottom=0;whiteSpace=wrap;html=1;" parent="WIyWlLk6GJQsqaUBKTNV-1" vertex="1">
          <mxGeometry x="527" y="530" width="140" height="100" as="geometry" />
        </mxCell>
        <mxCell id="OLpAq79K6-Yp3FqnE2U5-8" value="Nome&lt;div&gt;Representante&amp;nbsp;&lt;/div&gt;&lt;div&gt;País de origem&lt;/div&gt;&lt;div&gt;Logótipo&lt;/div&gt;&lt;div&gt;&lt;br&gt;&lt;/div&gt;" style="text;strokeColor=none;fillColor=none;align=left;verticalAlign=middle;spacingLeft=4;spacingRight=4;overflow=hidden;points=[[0,0.5],[1,0.5]];portConstraint=eastwest;rotatable=0;whiteSpace=wrap;html=1;" parent="OLpAq79K6-Yp3FqnE2U5-7" vertex="1">
          <mxGeometry y="30" width="140" height="70" as="geometry" />
        </mxCell>
        <mxCell id="OLpAq79K6-Yp3FqnE2U5-11" value="Desfile" style="swimlane;fontStyle=0;childLayout=stackLayout;horizontal=1;startSize=30;horizontalStack=0;resizeParent=1;resizeParentMax=0;resizeLast=0;collapsible=1;marginBottom=0;whiteSpace=wrap;html=1;" parent="WIyWlLk6GJQsqaUBKTNV-1" vertex="1">
          <mxGeometry x="725.5" y="533" width="140" height="80" as="geometry" />
        </mxCell>
        <mxCell id="OLpAq79K6-Yp3FqnE2U5-14" value="&lt;div&gt;&lt;span style=&quot;background-color: initial;&quot;&gt;Id Desfile&lt;/span&gt;&lt;br&gt;&lt;/div&gt;Data&amp;nbsp;&lt;div&gt;Hora&lt;/div&gt;&lt;div&gt;&lt;br&gt;&lt;/div&gt;" style="text;strokeColor=none;fillColor=none;align=left;verticalAlign=middle;spacingLeft=4;spacingRight=4;overflow=hidden;points=[[0,0.5],[1,0.5]];portConstraint=eastwest;rotatable=0;whiteSpace=wrap;html=1;" parent="OLpAq79K6-Yp3FqnE2U5-11" vertex="1">
          <mxGeometry y="30" width="140" height="50" as="geometry" />
        </mxCell>
        <mxCell id="OLpAq79K6-Yp3FqnE2U5-19" value="Coleção" style="swimlane;fontStyle=0;childLayout=stackLayout;horizontal=1;startSize=30;horizontalStack=0;resizeParent=1;resizeParentMax=0;resizeLast=0;collapsible=1;marginBottom=0;whiteSpace=wrap;html=1;" parent="WIyWlLk6GJQsqaUBKTNV-1" vertex="1">
          <mxGeometry x="527" y="400" width="140" height="70" as="geometry" />
        </mxCell>
        <mxCell id="OLpAq79K6-Yp3FqnE2U5-20" value="Nome&lt;div&gt;Época&lt;/div&gt;" style="text;strokeColor=none;fillColor=none;align=left;verticalAlign=middle;spacingLeft=4;spacingRight=4;overflow=hidden;points=[[0,0.5],[1,0.5]];portConstraint=eastwest;rotatable=0;whiteSpace=wrap;html=1;" parent="OLpAq79K6-Yp3FqnE2U5-19" vertex="1">
          <mxGeometry y="30" width="140" height="40" as="geometry" />
        </mxCell>
        <mxCell id="OLpAq79K6-Yp3FqnE2U5-23" value="Peças" style="swimlane;fontStyle=0;childLayout=stackLayout;horizontal=1;startSize=30;horizontalStack=0;resizeParent=1;resizeParentMax=0;resizeLast=0;collapsible=1;marginBottom=0;whiteSpace=wrap;html=1;" parent="WIyWlLk6GJQsqaUBKTNV-1" vertex="1">
          <mxGeometry x="527" y="220" width="140" height="100" as="geometry" />
        </mxCell>
        <mxCell id="OLpAq79K6-Yp3FqnE2U5-24" value="id Peça&lt;div&gt;Material&amp;nbsp;&lt;/div&gt;&lt;div&gt;Cores&amp;nbsp;&lt;/div&gt;&lt;div&gt;Tipo&lt;/div&gt;" style="text;strokeColor=none;fillColor=none;align=left;verticalAlign=middle;spacingLeft=4;spacingRight=4;overflow=hidden;points=[[0,0.5],[1,0.5]];portConstraint=eastwest;rotatable=0;whiteSpace=wrap;html=1;" parent="OLpAq79K6-Yp3FqnE2U5-23" vertex="1">
          <mxGeometry y="30" width="140" height="70" as="geometry" />
        </mxCell>
        <mxCell id="OLpAq79K6-Yp3FqnE2U5-30" value="Designer" style="swimlane;fontStyle=0;childLayout=stackLayout;horizontal=1;startSize=30;horizontalStack=0;resizeParent=1;resizeParentMax=0;resizeLast=0;collapsible=1;marginBottom=0;whiteSpace=wrap;html=1;" parent="WIyWlLk6GJQsqaUBKTNV-1" vertex="1">
          <mxGeometry x="300" y="210" width="140" height="120" as="geometry" />
        </mxCell>
        <mxCell id="OLpAq79K6-Yp3FqnE2U5-31" value="Nome&lt;div&gt;Idade&lt;/div&gt;&lt;div&gt;Nacionalidade&lt;/div&gt;&lt;div&gt;Fotografia&lt;/div&gt;&lt;div&gt;Contacto *&lt;/div&gt;&lt;div&gt;Biografia *&lt;/div&gt;" style="text;strokeColor=none;fillColor=none;align=left;verticalAlign=middle;spacingLeft=4;spacingRight=4;overflow=hidden;points=[[0,0.5],[1,0.5]];portConstraint=eastwest;rotatable=0;whiteSpace=wrap;html=1;" parent="OLpAq79K6-Yp3FqnE2U5-30" vertex="1">
          <mxGeometry y="30" width="140" height="90" as="geometry" />
        </mxCell>
        <mxCell id="OLpAq79K6-Yp3FqnE2U5-34" value="" style="endArrow=none;html=1;rounded=0;exitX=0.498;exitY=-0.027;exitDx=0;exitDy=0;exitPerimeter=0;entryX=0.5;entryY=1;entryDx=0;entryDy=0;" parent="WIyWlLk6GJQsqaUBKTNV-1" source="OLpAq79K6-Yp3FqnE2U5-7" target="OLpAq79K6-Yp3FqnE2U5-19" edge="1">
          <mxGeometry width="50" height="50" relative="1" as="geometry">
            <mxPoint x="597" y="430" as="sourcePoint" />
            <mxPoint x="597" y="490" as="targetPoint" />
          </mxGeometry>
        </mxCell>
        <mxCell id="OLpAq79K6-Yp3FqnE2U5-36" value="" style="endArrow=none;html=1;rounded=0;" parent="WIyWlLk6GJQsqaUBKTNV-1" edge="1">
          <mxGeometry width="50" height="50" relative="1" as="geometry">
            <mxPoint x="597" y="320" as="sourcePoint" />
            <mxPoint x="597" y="320" as="targetPoint" />
            <Array as="points" />
          </mxGeometry>
        </mxCell>
        <mxCell id="OLpAq79K6-Yp3FqnE2U5-47" value="Técnicos de Styling" style="swimlane;fontStyle=0;childLayout=stackLayout;horizontal=1;startSize=30;horizontalStack=0;resizeParent=1;resizeParentMax=0;resizeLast=0;collapsible=1;marginBottom=0;whiteSpace=wrap;html=1;" parent="WIyWlLk6GJQsqaUBKTNV-1" vertex="1">
          <mxGeometry x="935" y="200" width="140" height="110" as="geometry" />
        </mxCell>
        <mxCell id="OLpAq79K6-Yp3FqnE2U5-48" value="Nome&lt;div&gt;Especialidade (cabeleireiro, maquilhador, estilista...)&lt;/div&gt;&lt;div&gt;Contacto&lt;/div&gt;" style="text;strokeColor=none;fillColor=none;align=left;verticalAlign=middle;spacingLeft=4;spacingRight=4;overflow=hidden;points=[[0,0.5],[1,0.5]];portConstraint=eastwest;rotatable=0;whiteSpace=wrap;html=1;" parent="OLpAq79K6-Yp3FqnE2U5-47" vertex="1">
          <mxGeometry y="30" width="140" height="80" as="geometry" />
        </mxCell>
        <mxCell id="OLpAq79K6-Yp3FqnE2U5-51" value="" style="endArrow=none;html=1;rounded=0;exitX=0;exitY=1;exitDx=0;exitDy=0;entryX=-0.007;entryY=0.413;entryDx=0;entryDy=0;entryPerimeter=0;" parent="WIyWlLk6GJQsqaUBKTNV-1" source="tS8xyD3pDplZ-1kiy1CS-8" target="OLpAq79K6-Yp3FqnE2U5-14" edge="1">
          <mxGeometry width="50" height="50" relative="1" as="geometry">
            <mxPoint x="667" y="591.98" as="sourcePoint" />
            <mxPoint x="719" y="591" as="targetPoint" />
            <Array as="points" />
          </mxGeometry>
        </mxCell>
        <mxCell id="OLpAq79K6-Yp3FqnE2U5-55" value="" style="endArrow=none;html=1;rounded=0;" parent="WIyWlLk6GJQsqaUBKTNV-1" edge="1">
          <mxGeometry width="50" height="50" relative="1" as="geometry">
            <mxPoint x="1121" y="690" as="sourcePoint" />
            <mxPoint x="1360" y="690" as="targetPoint" />
          </mxGeometry>
        </mxCell>
        <mxCell id="OLpAq79K6-Yp3FqnE2U5-57" value="Influencer" style="swimlane;fontStyle=0;childLayout=stackLayout;horizontal=1;startSize=30;horizontalStack=0;resizeParent=1;resizeParentMax=0;resizeLast=0;collapsible=1;marginBottom=0;whiteSpace=wrap;html=1;" parent="WIyWlLk6GJQsqaUBKTNV-1" vertex="1">
          <mxGeometry x="1051" y="730" width="140" height="80" as="geometry" />
        </mxCell>
        <mxCell id="OLpAq79K6-Yp3FqnE2U5-58" value="&lt;div&gt;&lt;span style=&quot;background-color: initial;&quot;&gt;Nº de seguidores&lt;/span&gt;&lt;br&gt;&lt;/div&gt;&lt;div&gt;Instagram handle (@)&lt;/div&gt;" style="text;strokeColor=none;fillColor=none;align=left;verticalAlign=middle;spacingLeft=4;spacingRight=4;overflow=hidden;points=[[0,0.5],[1,0.5]];portConstraint=eastwest;rotatable=0;whiteSpace=wrap;html=1;" parent="OLpAq79K6-Yp3FqnE2U5-57" vertex="1">
          <mxGeometry y="30" width="140" height="50" as="geometry" />
        </mxCell>
        <mxCell id="OLpAq79K6-Yp3FqnE2U5-61" value="" style="endArrow=none;html=1;rounded=0;" parent="WIyWlLk6GJQsqaUBKTNV-1" edge="1">
          <mxGeometry width="50" height="50" relative="1" as="geometry">
            <mxPoint x="597" y="770" as="sourcePoint" />
            <mxPoint x="1050" y="770" as="targetPoint" />
            <Array as="points">
              <mxPoint x="637" y="771" />
            </Array>
          </mxGeometry>
        </mxCell>
        <mxCell id="OLpAq79K6-Yp3FqnE2U5-62" value="" style="endArrow=none;html=1;rounded=0;" parent="WIyWlLk6GJQsqaUBKTNV-1" edge="1">
          <mxGeometry width="50" height="50" relative="1" as="geometry">
            <mxPoint x="597" y="770" as="sourcePoint" />
            <mxPoint x="597" y="630" as="targetPoint" />
          </mxGeometry>
        </mxCell>
        <mxCell id="OLpAq79K6-Yp3FqnE2U5-74" value="" style="endArrow=none;html=1;rounded=0;exitX=0.5;exitY=0;exitDx=0;exitDy=0;" parent="WIyWlLk6GJQsqaUBKTNV-1" source="OLpAq79K6-Yp3FqnE2U5-57" edge="1">
          <mxGeometry width="50" height="50" relative="1" as="geometry">
            <mxPoint x="1013" y="740" as="sourcePoint" />
            <mxPoint x="1121" y="691" as="targetPoint" />
          </mxGeometry>
        </mxCell>
        <mxCell id="OLpAq79K6-Yp3FqnE2U5-81" value="" style="endArrow=none;html=1;rounded=0;" parent="WIyWlLk6GJQsqaUBKTNV-1" edge="1">
          <mxGeometry width="50" height="50" relative="1" as="geometry">
            <mxPoint x="1359.82" y="730" as="sourcePoint" />
            <mxPoint x="1359.82" y="690" as="targetPoint" />
          </mxGeometry>
        </mxCell>
        <mxCell id="OLpAq79K6-Yp3FqnE2U5-82" value="Média" style="swimlane;fontStyle=0;childLayout=stackLayout;horizontal=1;startSize=30;horizontalStack=0;resizeParent=1;resizeParentMax=0;resizeLast=0;collapsible=1;marginBottom=0;whiteSpace=wrap;html=1;" parent="WIyWlLk6GJQsqaUBKTNV-1" vertex="1">
          <mxGeometry x="1285" y="730" width="140" height="100" as="geometry" />
        </mxCell>
        <mxCell id="OLpAq79K6-Yp3FqnE2U5-83" value="&lt;div&gt;&lt;span style=&quot;background-color: initial;&quot;&gt;Tipo (Fotógrafos, etc...)&lt;/span&gt;&lt;br&gt;&lt;/div&gt;&lt;div&gt;&lt;div&gt;Publicação (revista, canal de youtube, canal de televisão...&lt;/div&gt;&lt;div&gt;&lt;br&gt;&lt;/div&gt;&lt;/div&gt;" style="text;strokeColor=none;fillColor=none;align=left;verticalAlign=middle;spacingLeft=4;spacingRight=4;overflow=hidden;points=[[0,0.5],[1,0.5]];portConstraint=eastwest;rotatable=0;whiteSpace=wrap;html=1;" parent="OLpAq79K6-Yp3FqnE2U5-82" vertex="1">
          <mxGeometry y="30" width="140" height="70" as="geometry" />
        </mxCell>
        <mxCell id="OLpAq79K6-Yp3FqnE2U5-88" value="Acesso" style="swimlane;fontStyle=0;childLayout=stackLayout;horizontal=1;startSize=30;horizontalStack=0;resizeParent=1;resizeParentMax=0;resizeLast=0;collapsible=1;marginBottom=0;whiteSpace=wrap;html=1;" parent="WIyWlLk6GJQsqaUBKTNV-1" vertex="1">
          <mxGeometry x="953" y="508" width="140" height="130" as="geometry" />
        </mxCell>
        <mxCell id="OLpAq79K6-Yp3FqnE2U5-89" value="IdAcesso (pk)&lt;div&gt;Tipo de Acesso (Comum, VIP, Convidado)&lt;/div&gt;&lt;div&gt;Status (ativo, cancelado, expirado...)&lt;/div&gt;&lt;div&gt;&lt;br&gt;&lt;/div&gt;" style="text;strokeColor=none;fillColor=none;align=left;verticalAlign=middle;spacingLeft=4;spacingRight=4;overflow=hidden;points=[[0,0.5],[1,0.5]];portConstraint=eastwest;rotatable=0;whiteSpace=wrap;html=1;" parent="OLpAq79K6-Yp3FqnE2U5-88" vertex="1">
          <mxGeometry y="30" width="140" height="100" as="geometry" />
        </mxCell>
        <mxCell id="OLpAq79K6-Yp3FqnE2U5-94" value="Técnicos Locais" style="swimlane;fontStyle=0;childLayout=stackLayout;horizontal=1;startSize=30;horizontalStack=0;resizeParent=1;resizeParentMax=0;resizeLast=0;collapsible=1;marginBottom=0;whiteSpace=wrap;html=1;" parent="WIyWlLk6GJQsqaUBKTNV-1" vertex="1">
          <mxGeometry x="470" y="871" width="140" height="90" as="geometry" />
        </mxCell>
        <mxCell id="OLpAq79K6-Yp3FqnE2U5-95" value="Nome&lt;div&gt;Função(Som, Luz, Palco...)&lt;/div&gt;&lt;div&gt;Contacto&lt;/div&gt;" style="text;strokeColor=none;fillColor=none;align=left;verticalAlign=middle;spacingLeft=4;spacingRight=4;overflow=hidden;points=[[0,0.5],[1,0.5]];portConstraint=eastwest;rotatable=0;whiteSpace=wrap;html=1;" parent="OLpAq79K6-Yp3FqnE2U5-94" vertex="1">
          <mxGeometry y="30" width="140" height="60" as="geometry" />
        </mxCell>
        <mxCell id="OLpAq79K6-Yp3FqnE2U5-99" value="Material" style="swimlane;fontStyle=0;childLayout=stackLayout;horizontal=1;startSize=30;horizontalStack=0;resizeParent=1;resizeParentMax=0;resizeLast=0;collapsible=1;marginBottom=0;whiteSpace=wrap;html=1;" parent="WIyWlLk6GJQsqaUBKTNV-1" vertex="1">
          <mxGeometry x="871" y="830" width="140" height="100" as="geometry" />
        </mxCell>
        <mxCell id="OLpAq79K6-Yp3FqnE2U5-100" value="IdMaterial&lt;div&gt;Quantidade&lt;/div&gt;&lt;div&gt;Marca&lt;/div&gt;" style="text;strokeColor=none;fillColor=none;align=left;verticalAlign=middle;spacingLeft=4;spacingRight=4;overflow=hidden;points=[[0,0.5],[1,0.5]];portConstraint=eastwest;rotatable=0;whiteSpace=wrap;html=1;" parent="OLpAq79K6-Yp3FqnE2U5-99" vertex="1">
          <mxGeometry y="30" width="140" height="70" as="geometry" />
        </mxCell>
        <mxCell id="OLpAq79K6-Yp3FqnE2U5-38" value="Modelo" style="swimlane;fontStyle=0;childLayout=stackLayout;horizontal=1;startSize=30;horizontalStack=0;resizeParent=1;resizeParentMax=0;resizeLast=0;collapsible=1;marginBottom=0;whiteSpace=wrap;html=1;" parent="WIyWlLk6GJQsqaUBKTNV-1" vertex="1">
          <mxGeometry x="737" y="200" width="117" height="160" as="geometry" />
        </mxCell>
        <mxCell id="OLpAq79K6-Yp3FqnE2U5-44" value="&lt;div style=&quot;&quot;&gt;Nome&lt;div&gt;Idade&amp;nbsp;&lt;/div&gt;&lt;div&gt;Nacionalidade&lt;/div&gt;&lt;div&gt;Medidas&lt;/div&gt;&lt;div&gt;Altura&amp;nbsp;&lt;/div&gt;&lt;div&gt;Peso&lt;/div&gt;&lt;div&gt;Prob. Saúde&lt;/div&gt;&lt;div&gt;Contacto&lt;/div&gt;&lt;/div&gt;" style="text;html=1;align=left;verticalAlign=middle;resizable=0;points=[];autosize=1;strokeColor=none;fillColor=none;" parent="OLpAq79K6-Yp3FqnE2U5-38" vertex="1">
          <mxGeometry y="30" width="117" height="130" as="geometry" />
        </mxCell>
        <mxCell id="h2daB5j5cSeQjACsS8w_-1" value="" style="endArrow=none;html=1;rounded=0;exitX=0.5;exitY=0;exitDx=0;exitDy=0;" parent="WIyWlLk6GJQsqaUBKTNV-1" source="OLpAq79K6-Yp3FqnE2U5-19" edge="1">
          <mxGeometry width="50" height="50" relative="1" as="geometry">
            <mxPoint x="597" y="410" as="sourcePoint" />
            <mxPoint x="597" y="320" as="targetPoint" />
          </mxGeometry>
        </mxCell>
        <mxCell id="h2daB5j5cSeQjACsS8w_-6" value="Espectador" style="swimlane;fontStyle=0;childLayout=stackLayout;horizontal=1;startSize=30;horizontalStack=0;resizeParent=1;resizeParentMax=0;resizeLast=0;collapsible=1;marginBottom=0;whiteSpace=wrap;html=1;" parent="WIyWlLk6GJQsqaUBKTNV-1" vertex="1">
          <mxGeometry x="1147" y="550" width="140" height="80" as="geometry" />
        </mxCell>
        <mxCell id="h2daB5j5cSeQjACsS8w_-8" value="Nome&lt;div&gt;Contacto&lt;/div&gt;&lt;div&gt;Lugar&lt;/div&gt;" style="text;strokeColor=none;fillColor=none;align=left;verticalAlign=middle;spacingLeft=4;spacingRight=4;overflow=hidden;points=[[0,0.5],[1,0.5]];portConstraint=eastwest;rotatable=0;whiteSpace=wrap;html=1;" parent="h2daB5j5cSeQjACsS8w_-6" vertex="1">
          <mxGeometry y="30" width="140" height="50" as="geometry" />
        </mxCell>
        <mxCell id="tS8xyD3pDplZ-1kiy1CS-0" value="" style="endArrow=none;html=1;rounded=0;" parent="WIyWlLk6GJQsqaUBKTNV-1" target="tS8xyD3pDplZ-1kiy1CS-2" edge="1">
          <mxGeometry width="50" height="50" relative="1" as="geometry">
            <mxPoint x="1217" y="691" as="sourcePoint" />
            <mxPoint x="1216.87" y="655" as="targetPoint" />
            <Array as="points" />
          </mxGeometry>
        </mxCell>
        <mxCell id="tS8xyD3pDplZ-1kiy1CS-2" value="" style="triangle;whiteSpace=wrap;html=1;rotation=-90;" parent="WIyWlLk6GJQsqaUBKTNV-1" vertex="1">
          <mxGeometry x="1210.2199999999998" y="630" width="13.56" height="16" as="geometry" />
        </mxCell>
        <mxCell id="tS8xyD3pDplZ-1kiy1CS-4" value="*" style="text;html=1;align=center;verticalAlign=middle;whiteSpace=wrap;rounded=0;" parent="WIyWlLk6GJQsqaUBKTNV-1" vertex="1">
          <mxGeometry x="917" y="593.5" width="60" height="2" as="geometry" />
        </mxCell>
        <mxCell id="tS8xyD3pDplZ-1kiy1CS-5" value="*" style="text;html=1;align=center;verticalAlign=middle;whiteSpace=wrap;rounded=0;" parent="WIyWlLk6GJQsqaUBKTNV-1" vertex="1">
          <mxGeometry x="1111" y="590" width="60" height="10" as="geometry" />
        </mxCell>
        <mxCell id="tS8xyD3pDplZ-1kiy1CS-6" value="&lt;font style=&quot;font-size: 10px;&quot;&gt;1&lt;/font&gt;" style="text;html=1;align=center;verticalAlign=middle;whiteSpace=wrap;rounded=0;" parent="WIyWlLk6GJQsqaUBKTNV-1" vertex="1">
          <mxGeometry x="575" y="624" width="60" height="30" as="geometry" />
        </mxCell>
        <mxCell id="tS8xyD3pDplZ-1kiy1CS-7" value="*" style="text;html=1;align=center;verticalAlign=middle;whiteSpace=wrap;rounded=0;" parent="WIyWlLk6GJQsqaUBKTNV-1" vertex="1">
          <mxGeometry x="1011" y="749" width="60" height="30" as="geometry" />
        </mxCell>
        <mxCell id="tS8xyD3pDplZ-1kiy1CS-8" value="&lt;font style=&quot;font-size: 10px;&quot;&gt;1&lt;/font&gt;" style="text;html=1;align=center;verticalAlign=middle;whiteSpace=wrap;rounded=0;" parent="WIyWlLk6GJQsqaUBKTNV-1" vertex="1">
          <mxGeometry x="667" y="570" width="25" height="13" as="geometry" />
        </mxCell>
        <mxCell id="tS8xyD3pDplZ-1kiy1CS-10" value="&lt;font style=&quot;font-size: 10px;&quot;&gt;1&lt;/font&gt;" style="text;html=1;align=center;verticalAlign=middle;whiteSpace=wrap;rounded=0;" parent="WIyWlLk6GJQsqaUBKTNV-1" vertex="1">
          <mxGeometry x="577" y="505" width="60" height="30" as="geometry" />
        </mxCell>
        <mxCell id="tS8xyD3pDplZ-1kiy1CS-11" value="*" style="text;html=1;align=center;verticalAlign=middle;whiteSpace=wrap;rounded=0;" parent="WIyWlLk6GJQsqaUBKTNV-1" vertex="1">
          <mxGeometry x="577" y="469" width="60" height="30" as="geometry" />
        </mxCell>
        <mxCell id="tS8xyD3pDplZ-1kiy1CS-12" value="&lt;font style=&quot;font-size: 10px;&quot;&gt;1&lt;/font&gt;" style="text;html=1;align=center;verticalAlign=middle;whiteSpace=wrap;rounded=0;" parent="WIyWlLk6GJQsqaUBKTNV-1" vertex="1">
          <mxGeometry x="576" y="373" width="60" height="30" as="geometry" />
        </mxCell>
        <mxCell id="tS8xyD3pDplZ-1kiy1CS-13" value="*" style="text;html=1;align=center;verticalAlign=middle;whiteSpace=wrap;rounded=0;" parent="WIyWlLk6GJQsqaUBKTNV-1" vertex="1">
          <mxGeometry x="577" y="318" width="60" height="30" as="geometry" />
        </mxCell>
        <mxCell id="tS8xyD3pDplZ-1kiy1CS-14" value="*" style="text;html=1;align=center;verticalAlign=middle;whiteSpace=wrap;rounded=0;" parent="WIyWlLk6GJQsqaUBKTNV-1" vertex="1">
          <mxGeometry x="779" y="391" width="60" height="30" as="geometry" />
        </mxCell>
        <mxCell id="tS8xyD3pDplZ-1kiy1CS-15" value="*" style="text;html=1;align=center;verticalAlign=middle;whiteSpace=wrap;rounded=0;" parent="WIyWlLk6GJQsqaUBKTNV-1" vertex="1">
          <mxGeometry x="779" y="469" width="60" height="30" as="geometry" />
        </mxCell>
        <mxCell id="tS8xyD3pDplZ-1kiy1CS-16" value="&lt;span style=&quot;font-size: 10px;&quot;&gt;1...*&lt;/span&gt;" style="text;html=1;align=center;verticalAlign=middle;whiteSpace=wrap;rounded=0;" parent="WIyWlLk6GJQsqaUBKTNV-1" vertex="1">
          <mxGeometry x="893" y="232" width="60" height="30" as="geometry" />
        </mxCell>
        <mxCell id="tS8xyD3pDplZ-1kiy1CS-17" value="&lt;font style=&quot;font-size: 10px;&quot;&gt;1&lt;/font&gt;" style="text;html=1;align=center;verticalAlign=middle;whiteSpace=wrap;rounded=0;" parent="WIyWlLk6GJQsqaUBKTNV-1" vertex="1">
          <mxGeometry x="833" y="232" width="60" height="30" as="geometry" />
        </mxCell>
        <mxCell id="tS8xyD3pDplZ-1kiy1CS-19" value="1" style="text;html=1;align=center;verticalAlign=middle;whiteSpace=wrap;rounded=0;" parent="WIyWlLk6GJQsqaUBKTNV-1" vertex="1">
          <mxGeometry x="779" y="701" width="16" height="14" as="geometry" />
        </mxCell>
        <mxCell id="tS8xyD3pDplZ-1kiy1CS-21" value="*" style="text;html=1;align=center;verticalAlign=middle;whiteSpace=wrap;rounded=0;" parent="WIyWlLk6GJQsqaUBKTNV-1" vertex="1">
          <mxGeometry x="597" y="895" width="60" height="30" as="geometry" />
        </mxCell>
        <mxCell id="OLpAq79K6-Yp3FqnE2U5-46" value="" style="endArrow=none;html=1;rounded=0;exitX=0.983;exitY=0.206;exitDx=0;exitDy=0;entryX=-0.005;entryY=0.338;entryDx=0;entryDy=0;entryPerimeter=0;exitPerimeter=0;" parent="WIyWlLk6GJQsqaUBKTNV-1" source="OLpAq79K6-Yp3FqnE2U5-44" target="OLpAq79K6-Yp3FqnE2U5-48" edge="1">
          <mxGeometry width="50" height="50" relative="1" as="geometry">
            <mxPoint x="875" y="249.9999999999999" as="sourcePoint" />
            <mxPoint x="945" y="250" as="targetPoint" />
          </mxGeometry>
        </mxCell>
        <mxCell id="LyMC56T-BypBeBw1wxai-3" value="Modelo_Desfile" style="swimlane;fontStyle=0;childLayout=stackLayout;horizontal=1;startSize=30;horizontalStack=0;resizeParent=1;resizeParentMax=0;resizeLast=0;collapsible=1;marginBottom=0;whiteSpace=wrap;html=1;" parent="WIyWlLk6GJQsqaUBKTNV-1" vertex="1">
          <mxGeometry x="740" y="410" width="120" height="60" as="geometry" />
        </mxCell>
        <mxCell id="LyMC56T-BypBeBw1wxai-4" value="idDesfile&lt;div&gt;Nome&amp;nbsp;&lt;/div&gt;" style="text;strokeColor=none;fillColor=none;align=left;verticalAlign=middle;spacingLeft=4;spacingRight=4;overflow=hidden;points=[[0,0.5],[1,0.5]];portConstraint=eastwest;rotatable=0;whiteSpace=wrap;html=1;" parent="LyMC56T-BypBeBw1wxai-3" vertex="1">
          <mxGeometry y="30" width="120" height="30" as="geometry" />
        </mxCell>
        <mxCell id="LyMC56T-BypBeBw1wxai-7" value="" style="endArrow=none;html=1;rounded=0;exitX=0.5;exitY=0;exitDx=0;exitDy=0;" parent="WIyWlLk6GJQsqaUBKTNV-1" source="LyMC56T-BypBeBw1wxai-3" edge="1">
          <mxGeometry width="50" height="50" relative="1" as="geometry">
            <mxPoint x="750" y="409" as="sourcePoint" />
            <mxPoint x="800" y="359" as="targetPoint" />
          </mxGeometry>
        </mxCell>
        <mxCell id="LyMC56T-BypBeBw1wxai-8" value="1" style="text;html=1;align=center;verticalAlign=middle;whiteSpace=wrap;rounded=0;" parent="WIyWlLk6GJQsqaUBKTNV-1" vertex="1">
          <mxGeometry x="779" y="355" width="60" height="30" as="geometry" />
        </mxCell>
        <mxCell id="LyMC56T-BypBeBw1wxai-9" value="" style="endArrow=none;html=1;rounded=0;exitX=0.354;exitY=0.987;exitDx=0;exitDy=0;exitPerimeter=0;" parent="WIyWlLk6GJQsqaUBKTNV-1" source="LyMC56T-BypBeBw1wxai-10" edge="1">
          <mxGeometry width="50" height="50" relative="1" as="geometry">
            <mxPoint x="800" y="493" as="sourcePoint" />
            <mxPoint x="800" y="471" as="targetPoint" />
          </mxGeometry>
        </mxCell>
        <mxCell id="LyMC56T-BypBeBw1wxai-10" value="1" style="text;html=1;align=center;verticalAlign=middle;whiteSpace=wrap;rounded=0;" parent="WIyWlLk6GJQsqaUBKTNV-1" vertex="1">
          <mxGeometry x="779" y="505" width="60" height="30" as="geometry" />
        </mxCell>
        <mxCell id="LyMC56T-BypBeBw1wxai-11" value="" style="endArrow=none;html=1;rounded=0;entryX=-0.016;entryY=0.417;entryDx=0;entryDy=0;entryPerimeter=0;" parent="WIyWlLk6GJQsqaUBKTNV-1" edge="1">
          <mxGeometry width="50" height="50" relative="1" as="geometry">
            <mxPoint x="442.24" y="282" as="sourcePoint" />
            <mxPoint x="527" y="281.19000000000005" as="targetPoint" />
          </mxGeometry>
        </mxCell>
        <mxCell id="LyMC56T-BypBeBw1wxai-12" value="*" style="text;html=1;align=center;verticalAlign=middle;whiteSpace=wrap;rounded=0;" parent="WIyWlLk6GJQsqaUBKTNV-1" vertex="1">
          <mxGeometry x="507" y="270" width="20" height="8" as="geometry" />
        </mxCell>
        <mxCell id="LyMC56T-BypBeBw1wxai-17" value="1" style="text;html=1;align=center;verticalAlign=middle;whiteSpace=wrap;rounded=0;" parent="WIyWlLk6GJQsqaUBKTNV-1" vertex="1">
          <mxGeometry x="430" y="270" width="30" height="10" as="geometry" />
        </mxCell>
        <mxCell id="LyMC56T-BypBeBw1wxai-23" value="1" style="text;html=1;align=center;verticalAlign=middle;whiteSpace=wrap;rounded=0;" parent="WIyWlLk6GJQsqaUBKTNV-1" vertex="1">
          <mxGeometry x="707" y="573.5" width="30" height="6" as="geometry" />
        </mxCell>
        <mxCell id="LyMC56T-BypBeBw1wxai-24" value="" style="endArrow=none;html=1;rounded=0;" parent="WIyWlLk6GJQsqaUBKTNV-1" edge="1">
          <mxGeometry width="50" height="50" relative="1" as="geometry">
            <mxPoint x="795.28" y="641" as="sourcePoint" />
            <mxPoint x="795.28" y="613" as="targetPoint" />
          </mxGeometry>
        </mxCell>
        <mxCell id="LyMC56T-BypBeBw1wxai-25" value="Localização" style="swimlane;fontStyle=0;childLayout=stackLayout;horizontal=1;startSize=30;horizontalStack=0;resizeParent=1;resizeParentMax=0;resizeLast=0;collapsible=1;marginBottom=0;whiteSpace=wrap;html=1;" parent="WIyWlLk6GJQsqaUBKTNV-1" vertex="1">
          <mxGeometry x="725.5" y="635" width="140" height="60" as="geometry" />
        </mxCell>
        <mxCell id="LyMC56T-BypBeBw1wxai-26" value="Morada" style="text;strokeColor=none;fillColor=none;align=left;verticalAlign=middle;spacingLeft=4;spacingRight=4;overflow=hidden;points=[[0,0.5],[1,0.5]];portConstraint=eastwest;rotatable=0;whiteSpace=wrap;html=1;" parent="LyMC56T-BypBeBw1wxai-25" vertex="1">
          <mxGeometry y="30" width="140" height="30" as="geometry" />
        </mxCell>
        <mxCell id="LyMC56T-BypBeBw1wxai-36" value="" style="endArrow=none;html=1;rounded=0;entryX=-0.005;entryY=0.618;entryDx=0;entryDy=0;entryPerimeter=0;" parent="WIyWlLk6GJQsqaUBKTNV-1" target="OLpAq79K6-Yp3FqnE2U5-89" edge="1">
          <mxGeometry width="50" height="50" relative="1" as="geometry">
            <mxPoint x="865.5" y="598" as="sourcePoint" />
            <mxPoint x="940" y="598" as="targetPoint" />
          </mxGeometry>
        </mxCell>
        <mxCell id="LyMC56T-BypBeBw1wxai-38" value="" style="endArrow=none;html=1;rounded=0;entryX=-0.009;entryY=0.434;entryDx=0;entryDy=0;entryPerimeter=0;" parent="WIyWlLk6GJQsqaUBKTNV-1" target="h2daB5j5cSeQjACsS8w_-8" edge="1">
          <mxGeometry width="50" height="50" relative="1" as="geometry">
            <mxPoint x="1093" y="601.5" as="sourcePoint" />
            <mxPoint x="1143" y="551.5" as="targetPoint" />
          </mxGeometry>
        </mxCell>
        <mxCell id="LyMC56T-BypBeBw1wxai-39" value="1" style="text;html=1;align=center;verticalAlign=middle;whiteSpace=wrap;rounded=0;" parent="WIyWlLk6GJQsqaUBKTNV-1" vertex="1">
          <mxGeometry x="863" y="579" width="17" height="20" as="geometry" />
        </mxCell>
        <mxCell id="_L-B8WiBXMJKwWAKVvHc-1" value="" style="endArrow=none;html=1;rounded=0;entryX=0.53;entryY=1.059;entryDx=0;entryDy=0;entryPerimeter=0;" edge="1" parent="WIyWlLk6GJQsqaUBKTNV-1" target="LyMC56T-BypBeBw1wxai-26">
          <mxGeometry width="50" height="50" relative="1" as="geometry">
            <mxPoint x="800" y="921" as="sourcePoint" />
            <mxPoint x="840" y="771" as="targetPoint" />
          </mxGeometry>
        </mxCell>
        <mxCell id="_L-B8WiBXMJKwWAKVvHc-2" value="" style="endArrow=none;html=1;rounded=0;exitX=1.006;exitY=0.332;exitDx=0;exitDy=0;exitPerimeter=0;" edge="1" parent="WIyWlLk6GJQsqaUBKTNV-1" source="OLpAq79K6-Yp3FqnE2U5-95">
          <mxGeometry width="50" height="50" relative="1" as="geometry">
            <mxPoint x="790" y="821" as="sourcePoint" />
            <mxPoint x="800" y="921" as="targetPoint" />
          </mxGeometry>
        </mxCell>
        <mxCell id="_L-B8WiBXMJKwWAKVvHc-3" value="" style="endArrow=none;dashed=1;html=1;dashPattern=1 3;strokeWidth=2;rounded=0;exitX=-0.013;exitY=0.263;exitDx=0;exitDy=0;exitPerimeter=0;" edge="1" parent="WIyWlLk6GJQsqaUBKTNV-1" source="OLpAq79K6-Yp3FqnE2U5-100">
          <mxGeometry width="50" height="50" relative="1" as="geometry">
            <mxPoint x="810" y="821" as="sourcePoint" />
            <mxPoint x="800" y="878" as="targetPoint" />
          </mxGeometry>
        </mxCell>
      </root>
    </mxGraphModel>
  </diagram>
</mxfile>
